<svg width="24" height="24" viewBox="0 0 24 24" fill="none" xmlns="http://www.w3.org/2000/svg">
<g id="Layer_1">
<path id="Vector" d="M18.0002 18.2996H5.4002C4.9082 18.2996 4.5002 18.7076 4.5002 19.1996C4.5002 19.6916 4.9082 20.0996 5.4002 20.0996H18.6002C19.0922 20.0996 19.5002 20.5076 19.5002 20.9996C19.5002 21.4916 19.0922 21.8996 18.6002 21.8996H5.4002C3.9122 21.8996 2.7002 20.6876 2.7002 19.1996V4.19961C2.7002 3.03561 3.6362 2.09961 4.8002 2.09961H19.2002C20.3642 2.09961 21.3002 3.03561 21.3002 4.19961V16.1996C21.3002 16.3196 21.3002 16.4396 21.2762 16.5476C21.1082 17.5916 20.1002 18.2996 19.0442 18.2996H18.0002ZM4.8002 3.89961C4.6322 3.89961 4.5002 4.03161 4.5002 4.19961V16.6556C4.7762 16.5596 5.0882 16.4996 5.4002 16.4996H19.2002C19.3682 16.4996 19.5002 16.3676 19.5002 16.1996V4.19961C19.5002 4.03161 19.3682 3.89961 19.2002 3.89961H4.8002Z" fill="#356DAD"/>
<g id="Group">
<path id="Vector_2" d="M11.8562 12.4441C11.3642 12.4441 10.9562 12.0361 10.9562 11.5441V10.4401C10.9562 9.94809 11.3642 9.54009 11.8562 9.54009C12.4802 9.54009 12.9842 9.03609 12.9842 8.41209C12.9842 7.78809 12.4802 7.28409 11.8562 7.28409C11.4602 7.28409 11.0882 7.48809 10.8842 7.83609C10.6322 8.26809 10.0682 8.40009 9.64816 8.14809C9.21616 7.89609 9.08416 7.34409 9.33616 6.91209C9.86416 6.03609 10.8242 5.49609 11.8442 5.49609C13.4642 5.49609 14.7722 6.81609 14.7722 8.42409C14.7722 9.73209 13.9202 10.8361 12.7442 11.2201V11.5681C12.7442 12.0601 12.3362 12.4681 11.8442 12.4681L11.8562 12.4441Z" fill="#356DAD"/>
<path id="Vector_3" d="M11.8561 14.9281C11.3641 14.9281 10.9561 14.5201 10.9561 14.0281C10.9561 13.5361 11.3641 13.0801 11.8561 13.0801C12.3481 13.0801 12.7561 13.4401 12.7561 13.9321V14.0281C12.7561 14.5201 12.3481 14.9281 11.8561 14.9281Z" fill="#356DAD"/>
</g>
</g>
</svg>
