<svg width="20" height="20" viewBox="0 0 20 20" fill="none" xmlns="http://www.w3.org/2000/svg">
<g id="Configuration" clip-path="url(#clip0_748_26314)">
<path id="Vector" d="M11.9497 19.25H8.04974C7.63974 19.25 7.29974 18.91 7.29974 18.5V17.49C7.29974 17 7.04974 16.56 6.66973 16.36C6.49973 16.27 6.33973 16.18 6.17973 16.07C5.80973 15.83 5.29973 15.84 4.86973 16.08L3.98973 16.59C3.81973 16.69 3.60974 16.71 3.41973 16.67C3.22973 16.62 3.05973 16.49 2.95973 16.32L1.01973 12.94C0.809735 12.58 0.939735 12.12 1.29973 11.92L2.17973 11.41C2.59973 11.17 2.84973 10.71 2.83973 10.2V10V9.8C2.84973 9.3 2.59973 8.84 2.17973 8.6L1.29973 8.09C0.939735 7.88 0.819735 7.43 1.01973 7.07L2.95973 3.69C3.05973 3.52 3.21973 3.39 3.41973 3.34C3.60974 3.29 3.81973 3.32 3.98973 3.42L4.87973 3.93C5.29974 4.17 5.81974 4.18 6.18973 3.93C6.34973 3.83 6.50973 3.73 6.67973 3.64C7.05973 3.44 7.30973 2.99 7.30973 2.51V1.5C7.30973 1.09 7.64974 0.75 8.05974 0.75H11.9597C12.1697 0.75 12.3697 0.84 12.5097 0.99C12.6497 1.14 12.7197 1.35 12.6997 1.56L12.5997 2.69C12.5597 3.21 12.8097 3.7 13.2397 3.94C13.3397 4 13.4497 4.06 13.5497 4.12C13.9397 4.37 14.4697 4.36 14.8997 4.09L15.9897 3.41C16.1597 3.3 16.3697 3.27 16.5697 3.32C16.7697 3.37 16.9397 3.5 17.0397 3.67L18.9897 7.05C19.1897 7.4 19.0797 7.85 18.7297 8.06L17.7897 8.64C17.2197 8.99 17.1697 9.68 17.1697 9.96V10.18C17.1497 10.68 17.4097 11.14 17.8297 11.38L18.7097 11.89C18.8797 11.99 19.0097 12.15 19.0597 12.35C19.1097 12.55 19.0797 12.75 18.9797 12.92L17.0297 16.3C16.9297 16.47 16.7697 16.6 16.5697 16.65C16.3797 16.7 16.1697 16.67 15.9997 16.57L15.1097 16.06C14.6897 15.81 14.1697 15.81 13.7997 16.06C13.6397 16.16 13.4797 16.26 13.3097 16.35C12.9297 16.55 12.6797 17 12.6797 17.48V18.49C12.6797 18.9 12.3397 19.24 11.9297 19.24L11.9497 19.25ZM8.79974 17.75H11.1997V17.49C11.1997 16.44 11.7497 15.5 12.6297 15.03C12.7597 14.96 12.8897 14.89 13.0097 14.81C13.8597 14.26 14.9597 14.25 15.8797 14.78L16.1197 14.92L17.3197 12.84L17.0897 12.71C16.1897 12.19 15.6497 11.22 15.6797 10.16V10C15.6697 8.88 16.1697 7.9 17.0197 7.38L17.3397 7.18L16.1397 5.1L15.6997 5.37C14.7897 5.93 13.6397 5.94 12.7597 5.39C12.6797 5.34 12.5997 5.29 12.5197 5.25C11.5697 4.72 11.0197 3.67 11.1097 2.56L11.1397 2.24H8.80974V2.5C8.80974 3.55 8.25974 4.49 7.37973 4.96C7.24973 5.03 7.11973 5.1 6.98973 5.18C6.13973 5.72 5.03973 5.74 4.12973 5.21L3.88973 5.07L2.69973 7.15L2.92973 7.28C3.82973 7.8 4.36974 8.77 4.33974 9.82V9.98V10.13C4.36974 11.18 3.82973 12.16 2.92973 12.68L2.69973 12.81L3.88973 14.89L4.11973 14.75C5.03973 14.22 6.13973 14.23 6.98973 14.78C7.11973 14.86 7.23973 14.93 7.36973 15C8.24973 15.47 8.79974 16.41 8.79974 17.46V17.72V17.75Z" fill="white"/>
<path id="Vector_2" d="M10.0005 14.0205C7.79047 14.0205 5.98047 12.2205 5.98047 10.0005C5.98047 7.78047 7.78047 5.98047 10.0005 5.98047C12.2205 5.98047 14.0205 7.78047 14.0205 10.0005C14.0205 12.2205 12.2205 14.0205 10.0005 14.0205ZM10.0005 7.48047C8.61047 7.48047 7.48047 8.61047 7.48047 10.0005C7.48047 11.3905 8.61047 12.5205 10.0005 12.5205C11.3905 12.5205 12.5205 11.3905 12.5205 10.0005C12.5205 8.61047 11.3905 7.48047 10.0005 7.48047Z" fill="white"/>
</g>
<defs>
<clipPath id="clip0_748_26314">
<rect width="20" height="20" fill="white"/>
</clipPath>
</defs>
</svg>
