<svg width="20" height="20" viewBox="0 0 20 20" fill="none" xmlns="http://www.w3.org/2000/svg">
<g id="Entrants">
<path id="Vector" d="M19.7396 12.9295C19.6496 12.7795 19.4896 12.6895 19.3196 12.6595L11.8996 11.6095V9.71947C12.7696 9.89947 13.6596 10.0995 14.5396 10.3395C14.5896 10.3495 14.6396 10.3595 14.6996 10.3595C14.8296 10.3595 14.9596 10.3195 15.0696 10.2395C15.2196 10.1295 15.2996 9.94947 15.2996 9.75947V1.63947C15.2996 1.45947 15.2196 1.27947 15.0696 1.16947C14.9296 1.05947 14.7396 1.00947 14.5596 1.05947C14.4496 1.08947 13.3896 1.34947 11.8996 1.95947V1.87947C11.8996 1.54947 11.6296 1.27947 11.2996 1.27947C10.9696 1.27947 10.6996 1.54947 10.6996 1.87947V2.47947C8.4796 3.50947 5.7096 5.16947 3.5696 7.71947C3.4196 7.89947 3.3896 8.13947 3.4796 8.34947C3.5696 8.55947 3.7696 8.69947 3.9996 8.70947C4.0396 8.70947 7.0196 8.83947 10.6996 9.49947V11.4595L0.839604 10.0495C0.609604 10.0195 0.399605 10.1095 0.269605 10.2995C0.139605 10.4795 0.119605 10.7195 0.229605 10.9195L1.5096 13.4195C2.5796 15.4995 4.4696 17.0795 6.7096 17.7495L6.9496 17.8195C7.7496 18.0595 8.5796 18.1795 9.4196 18.1795H17.9896C18.2596 18.1795 18.4896 17.9995 18.5696 17.7495L19.8196 13.4195C19.8696 13.2495 19.8396 13.0695 19.7496 12.9295H19.7396ZM14.0996 2.43947V8.98947C10.5196 8.09947 7.0996 7.72947 5.3096 7.57947C8.3796 4.48947 12.4496 2.95947 14.0996 2.43947ZM17.5296 16.9795H9.4096C8.6896 16.9795 7.9796 16.8795 7.2896 16.6695L7.0496 16.5995C5.11961 16.0195 3.4896 14.6695 2.5696 12.8695L1.8196 11.3995L18.4696 13.7495L17.5296 16.9795Z" fill="white"/>
</g>
</svg>
