<svg width="24" height="24" viewBox="0 0 24 24" fill="none" xmlns="http://www.w3.org/2000/svg">
<g id="Layer_1">
<path id="Vector" d="M20.4002 4.73985H17.5682V3.29985C17.5682 2.72385 17.2442 2.20785 16.7402 1.95585C16.2242 1.70385 15.6242 1.75185 15.1682 2.09985L12.0002 4.49985L8.8322 2.09985C8.3762 1.75185 7.7762 1.69185 7.2602 1.95585C6.7442 2.20785 6.4322 2.72385 6.4322 3.29985V4.73985H3.6002C3.1082 4.73985 2.7002 5.14785 2.7002 5.63985V11.6398C2.7002 12.1318 3.1082 12.5398 3.6002 12.5398H3.9002V21.2878C3.9002 21.7798 4.3082 22.1878 4.8002 22.1878H19.2002C19.6922 22.1878 20.1002 21.7798 20.1002 21.2878V12.5398H20.4002C20.8922 12.5398 21.3002 12.1318 21.3002 11.6398V5.63985C21.3002 5.14785 20.8922 4.73985 20.4002 4.73985ZM15.7682 3.91185V4.73985H14.6762L15.7682 3.91185ZM8.2322 3.91185L9.3242 4.73985H8.2322V3.91185ZM4.5002 6.53985H19.5002V10.7398H4.5002V6.53985ZM5.7002 12.5878H11.1002V20.3878H5.7002V12.5878ZM18.3002 20.3878H12.9002V12.5878H18.3002V20.3878Z" fill="#356DAD"/>
</g>
</svg>
