<svg width="28" height="28" viewBox="0 0 28 28" fill="none" xmlns="http://www.w3.org/2000/svg">
<path d="M5.73281 7.60046H1.99948C1.06615 7.60046 0.132812 6.80046 0.132812 5.73379V2.00046C0.132812 1.06712 0.932812 0.133789 1.99948 0.133789H5.73281C6.66615 0.133789 7.59948 0.933789 7.59948 2.00046V5.73379C7.59948 6.80046 6.79948 7.60046 5.73281 7.60046ZM1.99948 1.73379C1.86615 1.73379 1.73281 1.86712 1.73281 2.00046V5.73379C1.73281 5.86712 1.86615 6.00046 1.99948 6.00046H5.73281C5.86615 6.00046 5.99948 5.86712 5.99948 5.73379V2.00046C5.99948 1.86712 5.86615 1.73379 5.73281 1.73379H1.99948Z" fill="#356DAD"/>
<path d="M15.8666 7.60046H12.1333C11.1999 7.60046 10.2666 6.80046 10.2666 5.73379V2.00046C10.2666 1.06712 11.0666 0.133789 12.1333 0.133789H15.8666C16.7999 0.133789 17.7333 0.933789 17.7333 2.00046V5.73379C17.7333 6.80046 16.9333 7.60046 15.8666 7.60046ZM12.1333 1.73379C11.9999 1.73379 11.8666 1.86712 11.8666 2.00046V5.73379C11.8666 5.86712 11.9999 6.00046 12.1333 6.00046H15.8666C15.9999 6.00046 16.1333 5.86712 16.1333 5.73379V2.00046C16.1333 1.86712 15.9999 1.73379 15.8666 1.73379H12.1333Z" fill="#356DAD"/>
<path d="M25.9994 7.60046H22.2661C21.3327 7.60046 20.3994 6.80046 20.3994 5.73379V2.00046C20.3994 1.06712 21.1994 0.133789 22.2661 0.133789H25.9994C26.9327 0.133789 27.8661 0.933789 27.8661 2.00046V5.73379C27.8661 6.80046 27.0661 7.60046 25.9994 7.60046ZM22.2661 1.73379C22.1327 1.73379 21.9994 1.86712 21.9994 2.00046V5.73379C21.9994 5.86712 22.1327 6.00046 22.2661 6.00046H25.9994C26.1327 6.00046 26.2661 5.86712 26.2661 5.73379V2.00046C26.2661 1.86712 26.1327 1.73379 25.9994 1.73379H22.2661Z" fill="#356DAD"/>
<path d="M5.73281 17.7342H1.99948C1.06615 17.7342 0.132812 16.9342 0.132812 15.8676V12.1342C0.132812 11.2009 0.932812 10.2676 1.99948 10.2676H5.73281C6.66615 10.2676 7.59948 11.0676 7.59948 12.1342V15.8676C7.59948 16.9342 6.79948 17.7342 5.73281 17.7342ZM1.99948 11.8676C1.86615 11.8676 1.73281 12.0009 1.73281 12.1342V15.8676C1.73281 16.0009 1.86615 16.1342 1.99948 16.1342H5.73281C5.86615 16.1342 5.99948 16.0009 5.99948 15.8676V12.1342C5.99948 12.0009 5.86615 11.8676 5.73281 11.8676H1.99948Z" fill="#356DAD"/>
<path d="M15.8656 17.7342H12.1323C11.199 17.7342 10.2656 16.9342 10.2656 15.8676V12.1342C10.2656 11.2009 11.0656 10.2676 12.1323 10.2676H15.8656C16.799 10.2676 17.7323 11.0676 17.7323 12.1342V15.8676C17.7323 16.9342 16.9323 17.7342 15.8656 17.7342ZM12.1323 11.8676C11.999 11.8676 11.8656 12.0009 11.8656 12.1342V15.8676C11.8656 16.0009 11.999 16.1342 12.1323 16.1342H15.8656C15.999 16.1342 16.1323 16.0009 16.1323 15.8676V12.1342C16.1323 12.0009 15.999 11.8676 15.8656 11.8676H12.1323Z" fill="#356DAD"/>
<path d="M25.9994 17.7342H22.2661C21.3327 17.7342 20.3994 16.9342 20.3994 15.8676V12.1342C20.3994 11.2009 21.1994 10.2676 22.2661 10.2676H25.9994C26.9327 10.2676 27.8661 11.0676 27.8661 12.1342V15.8676C27.8661 16.9342 27.0661 17.7342 25.9994 17.7342ZM22.2661 11.8676C22.1327 11.8676 21.9994 12.0009 21.9994 12.1342V15.8676C21.9994 16.0009 22.1327 16.1342 22.2661 16.1342H25.9994C26.1327 16.1342 26.2661 16.0009 26.2661 15.8676V12.1342C26.2661 12.0009 26.1327 11.8676 25.9994 11.8676H22.2661Z" fill="#356DAD"/>
<path d="M5.73281 27.8671H1.99948C1.06615 27.8671 0.132812 27.0671 0.132812 26.0004V22.2671C0.132812 21.3337 0.932812 20.4004 1.99948 20.4004H5.73281C6.66615 20.4004 7.59948 21.2004 7.59948 22.2671V26.0004C7.59948 27.0671 6.79948 27.8671 5.73281 27.8671ZM1.99948 22.0004C1.86615 22.0004 1.73281 22.1337 1.73281 22.2671V26.0004C1.73281 26.1337 1.86615 26.2671 1.99948 26.2671H5.73281C5.86615 26.2671 5.99948 26.1337 5.99948 26.0004V22.2671C5.99948 22.1337 5.86615 22.0004 5.73281 22.0004H1.99948Z" fill="#356DAD"/>
<path d="M15.8666 27.8671H12.1333C11.1999 27.8671 10.2666 27.0671 10.2666 26.0004V22.2671C10.2666 21.3337 11.0666 20.4004 12.1333 20.4004H15.8666C16.7999 20.4004 17.7333 21.2004 17.7333 22.2671V26.0004C17.7333 27.0671 16.9333 27.8671 15.8666 27.8671ZM12.1333 22.0004C11.9999 22.0004 11.8666 22.1337 11.8666 22.2671V26.0004C11.8666 26.1337 11.9999 26.2671 12.1333 26.2671H15.8666C15.9999 26.2671 16.1333 26.1337 16.1333 26.0004V22.2671C16.1333 22.1337 15.9999 22.0004 15.8666 22.0004H12.1333Z" fill="#356DAD"/>
<path d="M25.9994 27.8671H22.2661C21.3327 27.8671 20.3994 27.0671 20.3994 26.0004V22.2671C20.3994 21.3337 21.1994 20.4004 22.2661 20.4004H25.9994C26.9327 20.4004 27.8661 21.2004 27.8661 22.2671V26.0004C27.8661 27.0671 27.0661 27.8671 25.9994 27.8671ZM22.2661 22.0004C22.1327 22.0004 21.9994 22.1337 21.9994 22.2671V26.0004C21.9994 26.1337 22.1327 26.2671 22.2661 26.2671H25.9994C26.1327 26.2671 26.2661 26.1337 26.2661 26.0004V22.2671C26.2661 22.1337 26.1327 22.0004 25.9994 22.0004H22.2661Z" fill="#356DAD"/>
</svg>
