<svg width="24" height="24" viewBox="0 0 24 24" fill="none" xmlns="http://www.w3.org/2000/svg">
<g id="Layer_1">
<g id="Group">
<path id="Vector" d="M4.98013 2.05174C4.39213 2.17174 3.96013 2.56774 3.58813 2.91574L3.36013 3.13174C2.80813 3.68374 2.42413 4.39174 2.16013 5.31574C2.10013 5.55574 2.05213 5.79574 2.01613 6.03574C1.99213 6.17974 1.96813 6.33574 1.93213 6.51574V7.53574L1.96813 7.65574C2.07613 8.99974 2.48413 10.3317 3.21613 11.7237C4.68013 14.5317 6.74413 16.9557 9.32413 18.9357C11.1361 20.3277 12.8881 21.2517 14.6881 21.7437C15.8521 22.0677 16.9081 22.1517 17.9041 22.0077C19.1281 21.8277 20.1961 21.2757 21.1441 20.3277L21.2281 20.2437C22.1401 19.2957 22.1521 17.9277 21.2281 17.0037C20.5921 16.3557 19.9681 15.7197 19.3201 15.0957C18.4081 14.1957 17.0161 14.1957 16.0921 15.0957L15.4321 15.7557C14.8921 16.2837 14.2081 16.2837 13.6801 15.7557C11.8561 13.9437 10.0441 12.1197 8.23213 10.3077C7.66813 9.74374 7.66813 9.05974 8.23213 8.48374L8.65213 8.06374C8.76013 7.95574 8.86813 7.84774 8.96413 7.72774C9.78013 6.82774 9.78013 5.61574 8.96413 4.73974L8.80813 4.57174C8.22013 3.93574 7.63213 3.29974 7.03213 2.67574C6.48013 2.09974 5.77213 1.89574 4.94413 2.06374L4.98013 2.05174ZM6.91213 11.4357C8.04013 12.5637 9.16813 13.6917 10.2961 14.8197L12.3241 16.8477C13.2601 17.7837 14.3521 18.0597 15.5521 17.6517C15.9121 17.5317 16.2241 17.3277 16.5601 17.0037L17.2921 16.2717C17.5681 16.0077 17.7601 16.0077 18.0361 16.2717C18.6601 16.8837 19.2721 17.5077 19.8961 18.1317C20.1361 18.3717 20.1361 18.6957 19.8961 18.9597L19.7881 19.0797C19.0201 19.8477 18.0361 20.2077 16.7281 20.2077C15.8161 20.1957 14.7361 19.9077 13.6081 19.4037C11.1001 18.2637 8.91613 16.5597 6.93613 14.2077C5.64013 12.6717 4.74013 11.1837 4.18813 9.65974C3.74413 8.43574 3.61213 7.31974 3.76813 6.25174C3.88813 5.42374 4.26013 4.69174 4.87213 4.09174C4.94413 4.01974 5.01613 3.94774 5.10013 3.87574C5.28013 3.71974 5.44813 3.73174 5.62813 3.92374C5.98813 4.29574 7.50013 5.80774 7.50013 5.80774C7.58413 5.89174 7.65613 5.96374 7.70413 6.04774C7.80013 6.19174 7.77613 6.34774 7.64413 6.47974L6.85213 7.25974C5.68813 8.45974 5.71213 10.2597 6.90013 11.4477L6.91213 11.4357Z" fill="#356DAD"/>
<path id="Vector_2" d="M15.4682 2.14764C15.2042 2.08764 14.9282 2.05164 14.6642 2.01564C14.4842 1.99164 14.3162 1.96764 14.1002 1.93164H13.2722C13.1522 2.00364 12.9962 2.07564 12.8762 2.19564C12.7922 2.27964 12.7202 2.38764 12.6842 2.50764C12.5882 2.80764 12.6242 3.11964 12.7922 3.34764C12.9602 3.57564 13.2362 3.70764 13.5482 3.70764C14.2802 3.70764 14.9402 3.82764 15.5762 4.03164C18.3602 4.94364 20.2082 7.45164 20.2682 10.4156C20.2682 10.9796 20.6282 11.3516 21.1562 11.3396C21.4082 11.3396 21.6242 11.2556 21.7802 11.0996C21.9482 10.9316 22.0442 10.6916 22.0322 10.4036C22.0322 9.95964 21.9842 9.50364 21.9002 8.98764C21.3362 5.63964 18.7442 2.89164 15.4322 2.14764H15.4682Z" fill="#356DAD"/>
<path id="Vector_3" d="M13.5362 5.45953C13.2002 5.43553 12.9362 5.50753 12.7562 5.69953C12.6842 5.77153 12.6362 5.84353 12.5882 5.93953C12.4442 6.23953 12.4562 6.55153 12.6122 6.81553C12.7682 7.07953 13.0562 7.23553 13.3922 7.23553C14.3402 7.24753 15.1202 7.57153 15.7562 8.20753C16.3922 8.84353 16.7282 9.63553 16.7402 10.5835C16.7402 11.1355 17.1002 11.4835 17.6402 11.4835C17.8922 11.4835 18.1082 11.3995 18.2642 11.2435C18.4322 11.0755 18.5162 10.8475 18.5162 10.5715C18.5162 10.3795 18.5042 10.1875 18.4802 10.0075C18.2162 7.47553 16.0802 5.53153 13.5362 5.48353V5.45953Z" fill="#356DAD"/>
</g>
</g>
</svg>
