<svg width="20" height="20" viewBox="0 0 20 20" fill="none" xmlns="http://www.w3.org/2000/svg">
<g id="Race Day">
<g id="Group">
<path id="Vector" d="M8.5498 7.05957C8.9398 7.97957 9.3198 8.89957 9.6998 9.82957C10.6398 10.1596 11.6098 10.5596 12.5498 10.8896C12.1898 10.0396 11.8298 9.17957 11.4798 8.31957C10.5098 7.92957 9.5198 7.45957 8.5498 7.05957Z" fill="white"/>
<path id="Vector_2" d="M18.7002 12.5895L15.9802 6.04954C15.9102 5.86954 15.7502 5.73954 15.5702 5.68954C15.3802 5.64954 15.1902 5.68954 15.0402 5.81954C13.8602 6.80954 11.4802 5.62954 9.17021 4.48954C6.83021 3.33954 4.43021 2.13954 2.67021 2.89954L2.40021 2.23954C2.27021 1.92954 1.92021 1.78954 1.61021 1.91954C1.31021 2.03954 1.16021 2.38954 1.29021 2.69954L1.79021 3.88954L5.77021 13.4795L7.55021 17.7595C7.65021 17.9895 7.87021 18.1295 8.10021 18.1295C8.18021 18.1295 8.26021 18.1095 8.34021 18.0795C8.64021 17.9495 8.79021 17.5995 8.66021 17.2995L7.02021 13.3495C8.01021 12.3695 9.69021 12.8195 12.0502 13.5995C13.3202 14.0095 14.6902 14.4595 15.9202 14.4595C16.9702 14.4595 17.9202 14.1395 18.6302 13.1795C18.7602 13.0095 18.7802 12.7895 18.7002 12.5895ZM15.1902 11.4795C14.3902 11.4695 13.4802 11.2195 12.5502 10.8895C12.8002 11.5095 13.0602 12.1295 13.3202 12.7495C13.0302 12.6595 12.7302 12.5595 12.4202 12.4595C11.8102 12.2595 11.1902 12.0495 10.5602 11.8895C10.2802 11.1995 9.99021 10.5195 9.70021 9.82954C8.77021 9.49954 7.86021 9.24954 7.06021 9.23954C7.39021 10.0295 7.72021 10.8295 8.05021 11.6195C7.50021 11.6795 6.98021 11.8495 6.53021 12.1795L5.48021 9.65954C5.59021 9.58954 5.70021 9.52954 5.81021 9.47954C5.93021 9.41954 6.06021 9.36954 6.19021 9.33954C6.30021 9.30954 6.41021 9.28954 6.53021 9.26954H6.54021C6.69021 9.24954 6.85021 9.23954 7.01021 9.23954H7.06021C6.65021 8.24954 6.24021 7.25954 5.83021 6.27954C5.23021 6.21954 4.67021 6.29954 4.20021 6.55954H4.19021L3.14021 4.00954C3.62021 3.79954 4.21021 3.82954 4.88021 3.98954C5.20021 4.74954 5.51021 5.50954 5.83021 6.27954C6.66021 6.34954 7.59021 6.66954 8.55021 7.05954C8.28021 6.40954 8.02021 5.76954 7.74021 5.11954C8.04021 5.25954 8.34021 5.40954 8.64021 5.55954C9.35021 5.90954 10.0602 6.25954 10.7502 6.55954C10.9902 7.14954 11.2302 7.73954 11.4802 8.31954C12.4402 8.71954 13.3702 9.02954 14.2002 9.10954C13.9602 8.52954 13.7202 7.94954 13.4802 7.36954C14.0702 7.42954 14.6302 7.36954 15.1402 7.14954L15.8402 8.82954C15.3702 9.08954 14.8102 9.15954 14.2002 9.10954C14.5302 9.89954 14.8602 10.6895 15.1902 11.4795C15.3702 11.4795 15.5502 11.4695 15.7202 11.4495C15.8402 11.4295 15.9502 11.4095 16.0602 11.3795C16.1802 11.3495 16.3002 11.3095 16.4202 11.2495C16.5402 11.2095 16.6502 11.1395 16.7602 11.0595L17.4502 12.7095C17.0502 13.0995 16.5502 13.2595 15.9302 13.2595C15.6802 12.6695 15.4402 12.0795 15.1902 11.4795Z" fill="white"/>
</g>
</g>
</svg>
