<svg width="20" height="20" viewBox="0 0 20 20" fill="none" xmlns="http://www.w3.org/2000/svg">
<g id="Reports">
<g id="Group">
<path id="Vector" d="M14.0105 11.5H12.8805C12.5491 11.5 12.2805 11.7686 12.2805 12.1V15.57C12.2805 15.9014 12.5491 16.17 12.8805 16.17H14.0105C14.3419 16.17 14.6105 15.9014 14.6105 15.57V12.1C14.6105 11.7686 14.3419 11.5 14.0105 11.5Z" fill="white"/>
<path id="Vector_2" d="M10.5701 9.16992H9.44009C9.10872 9.16992 8.84009 9.43855 8.84009 9.76992V15.5699C8.84009 15.9013 9.10872 16.1699 9.44009 16.1699H10.5701C10.9015 16.1699 11.1701 15.9013 11.1701 15.5699V9.76992C11.1701 9.43855 10.9015 9.16992 10.5701 9.16992Z" fill="white"/>
<path id="Vector_3" d="M7.11013 6.83984H5.98013C5.64876 6.83984 5.38013 7.10847 5.38013 7.43984V15.5798C5.38013 15.9112 5.64876 16.1798 5.98013 16.1798H7.11013C7.4415 16.1798 7.71013 15.9112 7.71013 15.5798V7.43984C7.71013 7.10847 7.4415 6.83984 7.11013 6.83984Z" fill="white"/>
<path id="Vector_4" d="M17.15 6.9098C17.15 6.9098 17.1 6.81981 17.07 6.77981C17.05 6.7498 17.04 6.71981 17.01 6.68981C17.01 6.68981 17.01 6.68981 17.01 6.6798L12 1.5098C11.87 1.3798 11.7 1.2998 11.5 1.2998H3.92005C3.30005 1.2998 2.80005 1.7998 2.80005 2.4198V17.5698C2.80005 18.1898 3.30005 18.6898 3.92005 18.6898H16.07C16.69 18.6898 17.19 18.1898 17.19 17.5698V7.1698C17.19 7.0798 17.17 6.98981 17.14 6.89981L17.15 6.9098ZM12.2 3.7398L14.85 6.4798H12.2V3.7398ZM4.20005 17.3098V2.6998H10.8V7.1698C10.8 7.5598 11.11 7.8698 11.5 7.8698H15.8V17.2998H4.20005V17.3098Z" fill="white"/>
</g>
</g>
</svg>
