<svg width="20" height="20" viewBox="0 0 20 20" fill="none" xmlns="http://www.w3.org/2000/svg">
<g id="Search">
<path id="Search Icon" d="M15.1409 13.5328C16.1452 12.2238 16.6841 10.6172 16.6722 8.96747C16.6774 7.9577 16.4834 6.95682 16.1012 6.02215C15.719 5.08748 15.1562 4.23737 14.445 3.5205C13.7338 2.80364 12.8882 2.2341 11.9566 1.84449C11.0249 1.45488 10.0256 1.25286 9.0158 1.25C6.96493 1.25139 4.99776 2.06341 3.54307 3.50904C2.08839 4.95467 1.26414 6.9167 1.25 8.96747C1.26414 11.0182 2.08839 12.9803 3.54307 14.4259C4.99776 15.8715 6.96493 16.6835 9.0158 16.6849C10.6756 16.7155 12.2962 16.1788 13.6097 15.1635L16.891 18.424C16.9901 18.5271 17.109 18.6091 17.2405 18.6651C17.3721 18.7211 17.5136 18.75 17.6566 18.75C17.7996 18.75 17.9411 18.7211 18.0727 18.6651C18.2043 18.6091 18.3232 18.5271 18.4223 18.424C18.5258 18.3262 18.6082 18.2082 18.6646 18.0774C18.7209 17.9466 18.75 17.8057 18.75 17.6633C18.75 17.5209 18.7209 17.3799 18.6646 17.2491C18.6082 17.1183 18.5258 17.0004 18.4223 16.9026L15.1409 13.5328ZM9.0158 14.4078C8.29171 14.419 7.57253 14.287 6.89965 14.0193C6.22677 13.7516 5.61347 13.3535 5.09503 12.8479C4.57659 12.3423 4.16325 11.7391 3.8788 11.0732C3.59434 10.4072 3.44438 9.6916 3.43755 8.96747C3.43755 7.48806 4.02526 6.06925 5.07138 5.02315C6.11751 3.97706 7.53636 3.38937 9.0158 3.38937C10.4952 3.38937 11.9141 3.97706 12.9602 5.02315C14.0063 6.06925 14.5941 7.48806 14.5941 8.96747C14.5865 9.69114 14.436 10.4062 14.1512 11.0715C13.8665 11.7368 13.453 12.3393 12.9347 12.8444C12.4163 13.3494 11.8032 13.747 11.1307 14.0144C10.4582 14.2817 9.73944 14.4136 9.0158 14.4023V14.4078Z" fill="#356DAD"/>
</g>
</svg>
