<svg width="20" height="20" viewBox="0 0 20 20" fill="none" xmlns="http://www.w3.org/2000/svg">
<g id="SetUp">
<g id="Group">
<path id="Vector" d="M18.1397 12.7004C17.5797 11.5704 16.5397 10.7704 15.2697 10.5204C15.0197 10.4704 14.7597 10.4404 14.5097 10.4404C14.2097 10.4404 13.8997 10.4804 13.5897 10.5504L13.5297 10.6504L13.4697 10.5204C13.1897 10.2304 12.8997 9.95043 12.6197 9.63043C13.4597 8.79043 14.2997 7.95043 15.1897 7.11043C15.2297 7.16043 15.2797 7.21043 15.3797 7.30043C15.5397 7.46043 15.7097 7.54043 15.8797 7.54043C16.0297 7.54043 16.2497 7.47043 16.4297 7.16043L18.4197 3.84043C18.6297 3.48043 18.6097 3.24043 18.3197 2.95043L17.0597 1.69043C16.8897 1.52043 16.7397 1.45043 16.5797 1.45043C16.4597 1.45043 16.3297 1.49043 16.1697 1.59043L12.8497 3.58043C12.6297 3.71043 12.4997 3.88043 12.4797 4.07043C12.4597 4.26043 12.5397 4.46043 12.7297 4.64043C12.8631 4.78043 12.8631 4.9171 12.7297 5.05043L12.3397 5.43043C11.6997 6.07043 11.0597 6.71043 10.3297 7.36043C10.0597 7.08043 9.78973 6.81043 9.50973 6.54043C9.46973 6.50043 9.45973 6.47043 9.46973 6.40043C9.71973 5.29043 9.49973 4.12043 8.85973 3.19043C8.21973 2.26043 7.20973 1.64043 6.09973 1.48043C5.90973 1.45043 5.70973 1.44043 5.51973 1.44043C4.87973 1.44043 4.24973 1.60043 3.65973 1.90043C3.44973 2.01043 3.31973 2.17043 3.28973 2.36043C3.25973 2.55043 3.32973 2.75043 3.49973 2.91043C3.97973 3.39043 5.24973 4.66043 5.24973 4.66043C5.34973 4.76043 5.41973 4.84043 5.42973 4.95043C5.44973 5.13043 5.38973 5.26043 5.24973 5.35043C5.18973 5.39043 5.11973 5.41043 5.04973 5.41043C4.95973 5.41043 4.87973 5.38043 4.80973 5.33043C4.76973 5.30043 4.72973 5.26043 4.66973 5.21043L2.97973 3.52043C2.81973 3.36043 2.63973 3.27043 2.46973 3.27043C2.23973 3.27043 2.03973 3.42043 1.90973 3.69043C1.69973 4.12043 1.55973 4.58043 1.49973 5.06043L1.46973 5.18043V5.86043L1.49973 6.04043C1.54973 6.32043 1.59973 6.61043 1.69973 6.89043C2.24973 8.47043 3.80973 9.57043 5.48973 9.57043C5.59973 9.57043 5.69973 9.57043 5.80973 9.56043C6.00973 9.54043 6.20973 9.53043 6.46973 9.46043C6.50973 9.46043 6.53973 9.47043 6.60973 9.54043C6.65973 9.59043 6.70973 9.64043 6.70973 9.65043C6.70973 9.67043 6.63973 9.73043 6.58973 9.79043L5.40973 10.9704C4.38973 11.9904 3.35973 13.0204 2.33973 14.0404C1.84973 14.5304 1.56973 15.0504 1.46973 15.7104V16.2604L1.51973 16.4504C1.55973 16.6404 1.60973 16.8404 1.69973 17.0304C2.10973 17.8704 2.77973 18.3704 3.77973 18.5404H4.30973L4.51973 18.5104L4.54973 18.4904C5.06973 18.3804 5.52973 18.1304 5.93973 17.7104C5.93973 17.7104 9.38973 14.2604 10.2997 13.3404H10.4397C10.5497 13.4604 10.5797 13.5304 10.5497 13.6604C10.3197 14.7404 10.5297 15.8304 11.1497 16.7504C11.7697 17.6704 12.7197 18.2904 13.8197 18.4804C13.8597 18.4804 13.8997 18.4804 13.9497 18.4904C14.0197 18.4904 14.0797 18.4904 14.1797 18.5304H14.8597C14.9597 18.5004 15.0697 18.4904 15.1697 18.4704C15.3297 18.4404 15.4997 18.4104 15.6597 18.3604C15.9097 18.2804 16.1497 18.1904 16.3797 18.0704C16.5897 17.9604 16.7197 17.8004 16.7497 17.6104C16.7797 17.4204 16.7097 17.2304 16.5397 17.0604C16.0697 16.5904 14.7797 15.3004 14.7797 15.3004C14.6897 15.2104 14.6197 15.1304 14.6097 15.0204C14.5897 14.8504 14.6497 14.7204 14.7897 14.6204C14.8497 14.5804 14.9197 14.5604 14.9897 14.5604C15.0797 14.5604 15.1597 14.5904 15.2297 14.6404C15.2797 14.6804 15.3197 14.7204 15.3697 14.7604L17.0497 16.4404C17.2197 16.6104 17.3997 16.7004 17.5797 16.7004C17.7397 16.7004 17.9597 16.6204 18.1397 16.2604C18.7097 15.1004 18.7097 13.7904 18.1597 12.6604L18.1397 12.7004ZM13.7597 5.69043C13.9497 5.88043 14.1397 6.07043 14.2997 6.27043L11.7597 8.82043C11.7597 8.82043 11.3397 8.40043 11.1997 8.26043C12.0497 7.41043 12.8997 6.56043 13.7597 5.70043V5.69043ZM16.4697 2.80043L16.5097 2.83043C16.7297 3.06043 16.9597 3.29043 17.1997 3.55043L15.7297 5.99043L15.1197 5.37043L14.0197 4.25043C14.8197 3.78043 15.6097 3.30043 16.4097 2.82043C16.4497 2.80043 16.4597 2.80043 16.4597 2.80043H16.4697ZM15.9997 13.7804C15.7097 13.5304 15.3597 13.4004 14.9897 13.4004C14.6197 13.4004 14.2197 13.5504 13.9097 13.8204C13.3497 14.3104 13.2397 15.1704 13.6497 15.8304C13.7297 15.9604 13.8397 16.0804 13.9397 16.1804C14.1897 16.4304 15.0597 17.3104 15.0597 17.3104C14.8597 17.3504 14.6697 17.3804 14.4797 17.3804C14.3197 17.3804 14.1597 17.3604 13.9997 17.3304C12.8097 17.0804 12.0397 16.3604 11.7197 15.1804C11.5797 14.6804 11.5997 14.1704 11.7597 13.6804C11.8697 13.3404 11.7997 13.0704 11.5397 12.8104C10.0897 11.3704 8.63973 9.92043 7.19973 8.47043C7.01973 8.29043 6.83973 8.20043 6.62973 8.20043C6.54973 8.20043 6.45973 8.21043 6.35973 8.24043C6.05973 8.33043 5.76973 8.37043 5.47973 8.37043C4.91973 8.37043 4.36973 8.20043 3.84973 7.85043C2.93973 7.25043 2.44973 5.98043 2.69973 4.95043L2.87973 5.13043C3.20973 5.46043 3.52973 5.78043 3.84973 6.10043C4.18973 6.44043 4.56973 6.61043 4.98973 6.61043C5.15973 6.61043 5.33973 6.58043 5.51973 6.53043C5.99973 6.38043 6.36973 5.99043 6.51973 5.49043C6.66973 4.99043 6.56973 4.46043 6.25973 4.08043C6.00973 3.77043 5.71973 3.50043 5.43973 3.23043C5.28973 3.09043 5.13973 2.94043 4.99973 2.79043C4.97973 2.77043 4.94973 2.75043 4.92973 2.72043C5.13973 2.67043 5.32973 2.65043 5.51973 2.65043C5.67973 2.65043 5.82973 2.66043 5.97973 2.70043C7.17973 2.95043 7.94973 3.67043 8.26973 4.86043C8.39973 5.36043 8.38973 5.86043 8.22973 6.35043C8.10973 6.70043 8.18973 6.97043 8.45973 7.25043C9.90973 8.69043 11.3497 10.1304 12.7897 11.5804C12.9697 11.7604 13.1497 11.8404 13.3597 11.8404C13.4497 11.8404 13.5397 11.8304 13.6297 11.8004C13.9397 11.7104 14.2497 11.6604 14.5397 11.6604C15.2597 11.6604 15.9097 11.9304 16.4697 12.4804C17.1897 13.1704 17.4597 14.0304 17.2597 15.0804L16.5997 14.4204C16.3897 14.2104 16.1897 14.0004 15.9597 13.8104L15.9997 13.7804ZM2.64973 16.0104C2.65973 15.5904 2.79973 15.2604 3.06973 14.9804L7.55973 10.4904L7.57973 10.5104C8.21973 11.1504 8.84973 11.7904 9.49973 12.4704L7.71973 14.2504C6.82973 15.1404 5.93973 16.0304 5.04973 16.9104C4.75973 17.2004 4.39973 17.3504 4.02973 17.3504C3.49973 17.3504 3.03973 17.0504 2.77973 16.5404C2.69973 16.3804 2.65973 16.2004 2.64973 16.0004V16.0104Z" fill="white"/>
<path id="Vector_2" d="M4.0798 16.5108H4.0898C4.2998 16.5108 4.4498 16.3908 4.5398 16.3008L7.4798 13.3608C7.4798 13.3608 7.5598 13.2808 7.5898 13.2308C7.7198 13.0308 7.7298 12.8208 7.6198 12.6108C7.5098 12.4108 7.3298 12.3008 7.0798 12.3008C6.8698 12.3008 6.7198 12.4208 6.6098 12.5308L3.7098 15.4308C3.7098 15.4308 3.6198 15.5308 3.5798 15.5808C3.4598 15.7708 3.4398 15.9808 3.5498 16.1808C3.6598 16.3908 3.8398 16.5008 4.0798 16.5008V16.5108Z" fill="white"/>
</g>
</g>
</svg>
